<svg xmlns="http://www.w3.org/2000/svg" viewBox="0 0 340.86 340"><defs><style>.cls-1{fill:#002855;}.cls-2{fill:#fab71d;}.cls-3{fill:#f9b61d;}.cls-4{fill:#f8b61d;}.cls-5{fill:#f8b51d;}.cls-6{fill:#f8b51e;}.cls-7{fill:#3f4b4c;}.cls-8{fill:#6b6541;}.cls-9{fill:#6d673d;}.cls-10{fill:#3e4f47;}.cls-11{fill:#23244c;}</style></defs><title>İSLETME_İKTİSADI_ENSTİTÜSÜVarlık 15</title><g id="katman_2" data-name="katman 2"><g id="katman_1-2" data-name="katman 1"><path class="cls-1" d="M167.55,0A172.71,172.71,0,0,1,213,5.35,170.56,170.56,0,0,1,328.6,106.63a167.94,167.94,0,0,1,10.72,40.59,165,165,0,0,1,1.54,23A168.52,168.52,0,0,1,314,261.63a166.26,166.26,0,0,1-21.92,27.42,169.55,169.55,0,0,1-67.54,42.21,166.7,166.7,0,0,1-44.08,8.45A169.3,169.3,0,0,1,90.21,320,170.76,170.76,0,0,1,9,224.47,171.29,171.29,0,0,1,0,166.23,170.29,170.29,0,0,1,106.63,12.32a167,167,0,0,1,41-10.79q3.4-.44,6.8-.78C159,.3,163.53.1,167.55,0Z"/><path class="cls-2" d="M167.54,11.13a162,162,0,0,1,42.61,5,160,160,0,0,1,108.49,95,157.56,157.56,0,0,1,10.05,38.08,154.82,154.82,0,0,1,1.44,21.57,158.1,158.1,0,0,1-25.19,85.76,156,156,0,0,1-20.57,25.72A159.06,159.06,0,0,1,221,321.9a156.4,156.4,0,0,1-41.35,7.93A158.84,158.84,0,0,1,95,311.37a160.21,160.21,0,0,1-76.23-89.65,160.7,160.7,0,0,1-8.36-54.64,159.76,159.76,0,0,1,100-144.39,156.66,156.66,0,0,1,38.45-10.12q3.19-.42,6.38-.73C159.49,11.4,163.77,11.22,167.54,11.13Z"/><path class="cls-1" d="M327.21,170.64c.15,86.75-71.24,158.05-159.74,156.58C82.11,325.79,12.17,255.74,13.27,168.48,14.36,82.89,84.9,12.79,172.6,14,258.09,15.24,327.31,84.9,327.21,170.64Z"/><path class="cls-2" d="M110,59.49a134,134,0,0,1,16.45-7.62,129.6,129.6,0,0,1,28.23-7.17,131,131,0,0,1,18.08-1.25,123,123,0,0,1,29.11,3.46,121,121,0,0,1,47,22.84,122.48,122.48,0,0,1,41.26,59.11A124.26,124.26,0,0,1,283.25,222c-13.61,27.1-34.41,46.7-62.21,58.81a115.92,115.92,0,0,1-34.79,9.07,131.76,131.76,0,0,1-60.57-7.63,111,111,0,0,1-26-14.08c-2.59-1.88-3.55-4.48-3.87-7.43-.09-.83-.24-1.07-1.07-1a9.89,9.89,0,0,1-6.68-1.86,57.85,57.85,0,0,1-13.53-13.35,11.59,11.59,0,0,1-2.22-8.73c.17-1.29.13-1.38-1.16-1.39a7.11,7.11,0,0,1-6.28-3.59c-3.7-5.56-7.05-11.26-8.84-17.76a15.57,15.57,0,0,1,.17-9.2c.18-.54.13-.9-.37-1.17l-.15-.11a14.66,14.66,0,0,1-6.55-10.47A87.21,87.21,0,0,1,48,177.84c0-.79.11-1.57.21-2.35a6.15,6.15,0,0,1,2-4c.25-.21.53-.42.12-.73-2.66-2-3.14-4.92-3.25-8A63.18,63.18,0,0,1,48.52,145c.07-.27.16-.55.22-.82a9.21,9.21,0,0,1,5.48-6.66c.8-.34.67-.66.26-1.19a17.77,17.77,0,0,1-1-1.58,7.38,7.38,0,0,1-1-6,78.71,78.71,0,0,1,6.76-17.49A11.33,11.33,0,0,1,68,105c.83-.12,1.1-.4.68-1.18-.15-.27-.19-.6-.32-.89-1.06-2.24-.59-4.13,1-6,1.36-1.56,2.4-3.4,3.63-5.07A116.18,116.18,0,0,1,107.46,61c.41-.24.8-.5,1.2-.74C108.88,59.58,109.52,59.67,110,59.49Z"/><path class="cls-2" d="M156.36,27.55c-.51,2.88-1,5.76-1.53,8.65-.1.56-.25,1-.9,1s-1.46.71-2-.42c-1.24-2.48-2.6-4.89-3.92-7.33a3,3,0,0,0-.68-.91c.45,2.88.87,5.77,1.38,8.64.14.76-.1.91-.75,1-2.05.28-2,.29-2.36-1.76-.58-3.77-1.16-7.53-1.79-11.29-.1-.61,0-.8.61-.82.28,0,.56-.1.84-.13.93-.09,2-.72,2.74-.25s1,1.56,1.41,2.39c1,1.81,1.89,3.63,2.85,5.44a2.22,2.22,0,0,0,.67,1c.45-2.91.88-5.76,1.34-8.61.29-1.78-.06-1.32,1.67-1.65.71-.14,1.43-.21,2.14-.36.54-.11.8,0,.89.61.65,4.27,1.33,8.53,2,12.79,0,.12.09.32,0,.36-.73.59-1.65.42-2.49.59-.54.11-.43-.43-.48-.73-.45-2.77-.89-5.53-1.33-8.3C156.38,27,156.48,27.52,156.36,27.55Z"/><path class="cls-2" d="M86.73,278.92c-2.51,1.69-5,3.36-7.51,5.07-.48.33-.82.35-1.22,0a2.33,2.33,0,0,0-.53-.4c-.66-.36-.76-.8-.52-1.54.92-2.71,1.74-5.45,2.6-8.18.09-.24,0-.33-.22-.22-1.68,2.2-3.37,4.4-5,6.62-.34.45-.54.53-1,.17-1.78-1.32-1.8-1.3-.47-3.07,2.24-3,4.5-5.92,6.69-8.92.49-.66.8-.66,1.37-.16a23,23,0,0,0,2.18,1.65.8.8,0,0,1,.34,1.1c-.92,2.68-1.8,5.37-2.68,8.06-.1.29-.16.59-.31,1.11l2.94-2.06c1.62-1.14,3.26-2.27,4.85-3.45a.84.84,0,0,1,1.22,0c.78.64,1.59,1.24,2.42,1.82.39.28.44.5.13.9q-3.95,5.19-7.86,10.41c-.28.37-.46.36-.83.11-1.93-1.33-1.94-1.32-.54-3.19l4.19-5.59C87,279,87,278.79,86.73,278.92Z"/><path class="cls-2" d="M37.26,237.9c.42.91.73,1.8,0,2.6a2.14,2.14,0,0,1-2.26.56,4.1,4.1,0,0,1-2.19-3.67c.09-.44.42-.29.66-.35s.47.07.5.38a2.59,2.59,0,0,0,.44,1.33.9.9,0,0,0,1.33.24c.47-.3.39-.73.18-1.17-.59-1.21-.53-1.35.8-1.28.68,0,.78-.1.6-.75-.66-2.42,0-4.38,1.66-5.57.6-.42.93-.39,1.16.32a2.34,2.34,0,0,0,.25.51c.47.77.89,1.45-.19,2.17a1.82,1.82,0,0,0-.49,1.84A4.89,4.89,0,0,0,41,237.71a1.61,1.61,0,0,0,1.8.5,1.55,1.55,0,0,0,1-1.6,18.42,18.42,0,0,0-.45-3.08c-.1-.68-.25-1.36-.35-2a3.71,3.71,0,0,1,5.14-4c2.5,1,4.44,4.88,3.75,7.49a4,4,0,0,1-1.7,2.31c-.42.29-.66.23-.85-.24a6.67,6.67,0,0,0-.46-.93c-.4-.66-.67-1.15.1-1.91,1-1-.11-3.82-1.54-4.1a1.26,1.26,0,0,0-1.55,1.23,12.25,12.25,0,0,0,.45,3.17c.12.71.28,1.42.38,2.14a3.58,3.58,0,0,1-1.52,3.71,4,4,0,0,1-4.28.36,6,6,0,0,1-2.41-2.34C38.2,237.94,37.91,237.65,37.26,237.9Z"/><path class="cls-2" d="M228.21,296.65c1.13,2.53,2.24,5.06,3.39,7.57.28.61.26.9-.43,1.19-1.91.81-1.9.85-2.73-1-1.53-3.45-3.05-6.91-4.61-10.35-.27-.6-.23-.81.4-1.19a3.08,3.08,0,0,1,4,.32c2.32,1.78,4.82,3.33,7.26,5,.17-.35-.07-.57-.17-.8-1.05-2.39-2.1-4.79-3.2-7.16-.24-.52-.18-.73.36-1,2-.92,2-.94,2.91,1.08,1.52,3.42,3,6.85,4.59,10.27.26.58.18.78-.4,1.13a3.13,3.13,0,0,1-4-.3c-2.28-1.77-4.76-3.29-7.15-4.91Z"/><path class="cls-2" d="M108.27,60.06l-1,.26c-.35.09-.67.2-.78-.33s-.06-.72.47-.79a2.21,2.21,0,0,0,1.12-.47.91.91,0,0,0,.22-1.33c-.35-.51-.8-.4-1.24-.12-.19.12-.34.33-.54.37-.89.15-.75-.57-.76-1,0-.66-.13-.84-.86-.58a4.75,4.75,0,0,1-5.7-1.42c-.3-.41-.39-.69.16-.93a3.87,3.87,0,0,0,.73-.43c.71-.53,1.23-.77,2.1,0,1.32,1.2,4.65-.3,4.95-2.09a1.44,1.44,0,0,0-1.38-1.67,6.83,6.83,0,0,0-2.32.35c-1.07.27-2.13.57-3.21.79A3.69,3.69,0,0,1,96,45.79a7.07,7.07,0,0,1,7.36-4.25A4,4,0,0,1,105.57,43c.3.36.35.63-.14.87a5.37,5.37,0,0,0-1,.58,1.24,1.24,0,0,1-1.84,0c-1.14-.93-3.79.33-4,1.79a1.24,1.24,0,0,0,1.11,1.48,4.78,4.78,0,0,0,1.86-.25c1.19-.31,2.36-.67,3.56-.93A3.56,3.56,0,0,1,109,47.87a4,4,0,0,1,.54,4.35,5.93,5.93,0,0,1-2.08,2.4A.94.94,0,0,0,107,55.8c.13.12.22,0,.32,0,1.18-.58,2-.53,2.58.18a2.39,2.39,0,0,1,0,3c-.09.13-.2.24-.3.36C109.4,59.92,108.76,59.86,108.27,60.06Z"/><path class="cls-2" d="M120.86,297.48c2.3-1.21,4.37-2.27,6.41-3.39a1.68,1.68,0,0,1,1.59-.1c.86.35,1.75.62,2.84,1-2.24,1.11-4.24,2.14-6.28,3.1-.65.31-.75.62-.55,1.3.93,3,1.79,6,2.73,9.22l-3.47-1.17c-.37-.13-.36-.5-.43-.78-.54-2-1.08-4-1.57-6-.14-.58-.29-.64-.87-.42a3.1,3.1,0,0,0-2.21,2.53,2.75,2.75,0,0,1-.15.45c-.78,2.21-.77,2.19-3,1.44-.6-.2-.68-.43-.48-1,1.1-3.11,2.16-6.24,3.24-9.36.31-.89.64-1.78.91-2.68.17-.57.42-.62,1-.45,2.26.74,2.27.72,1.5,3Z"/><path class="cls-2" d="M221.25,33.24c-2.16,1.07-4.08,2.09-6.05,3-.89.4-1,.83-.71,1.71.87,2.73,1.64,5.49,2.45,8.23.05.17.09.35.17.7-1.23-.42-2.34-.8-3.45-1.19-.36-.13-.34-.5-.42-.79-.52-2-1.06-3.95-1.55-5.94-.15-.63-.34-.71-.95-.46a3,3,0,0,0-2.12,2.38,3.3,3.3,0,0,1-.21.62c-.25.68-.32,1.7-.8,1.94s-1.43-.41-2.19-.57-.64-.47-.45-1c1.24-3.53,2.44-7.08,3.67-10.61.74-2.12.74-2.08,2.87-1.36.69.23.77.49.53,1.13-.56,1.49-1,3-1.63,4.73,2.19-1.15,4.21-2.16,6.17-3.26a2.17,2.17,0,0,1,2.13-.12C219.44,32.66,220.23,32.89,221.25,33.24Z"/><path class="cls-2" d="M168.2,36.35c-1.51,0-3,0-4.54,0-.58,0-.85-.1-.84-.77q.17-6.47.27-12.94c0-.54.25-.61.7-.59,3.05.07,6.11.15,9.16.17.63,0,.81.2.79.81-.07,2.21.24,1.84-1.85,1.84-1.7,0-3.4,0-5.1-.08-.5,0-.62.13-.64.61-.07,2.37-.09,2.38,2.23,2.44,1.26,0,2.52.08,3.78.05.64,0,.88.14.86.83,0,1.62,0,1.63-1.58,1.61s-3.15,0-4.72-.11c-.59,0-.7.19-.69.7A17.55,17.55,0,0,1,166,33c-.05.59.15.77.73.77,2.08,0,4.16.11,6.23.11.65,0,.78.2.75.82-.11,1.76-.08,1.76-1.83,1.76H168.2Z"/><path class="cls-2" d="M225.08,307.44c.12.39-.2.41-.42.48-3.08,1-6.17,2-9.25,3-.39.13-.54.07-.67-.34q-2-6.25-4.07-12.48c-.14-.42,0-.62.39-.76q4.5-1.44,9-2.92c.41-.14.6-.06.76.36.76,1.94.78,1.94-1.19,2.58-1.53.49-3.05,1-4.59,1.47-.5.15-.72.31-.54.92.68,2.27.65,2.27,2.93,1.52,1.26-.42,2.52-.79,3.77-1.23.47-.17.64-.06.81.4.61,1.7.63,1.7-1.08,2.26-1.44.47-2.87.94-4.32,1.39-.45.14-.61.34-.43.81a16.85,16.85,0,0,1,.68,2.06c.15.6.44.62.94.45,1.94-.65,3.9-1.25,5.83-1.92.57-.2.87-.15,1,.48S224.92,307,225.08,307.44Z"/><path class="cls-2" d="M94.06,287.3c-.24,0-.3.22-.39.38-.38.65-.72,1.34-1.15,2s-.16.73.31,1c1.79,1,3.54,2.06,5.33,3,.6.33.61.6.29,1.14-.92,1.54-.89,1.55-2.41.67-2.4-1.39-4.79-2.79-7.21-4.14-.54-.3-.6-.53-.28-1.07q3.2-5.46,6.32-11c.32-.57.57-.64,1.14-.3,2.57,1.53,5.17,3,7.77,4.49.55.31.69.54.34,1.14-.94,1.58-.91,1.6-2.49.69s-3-1.68-4.41-2.56c-.43-.26-.61-.18-.86.24-1.26,2.05-1.27,2,.82,3.26,1.14.67,2.28,1.34,3.44,2,.38.21.45.39.23.8-.86,1.66-.84,1.67-2.45.73l-3.85-2.22Z"/><path class="cls-2" d="M68.84,256.7A14.43,14.43,0,0,1,67,258.18c-.38.22-.57-.37-.79-.63-1.23-1.43-2.46-2.87-3.65-4.34-.36-.45-.64-.62-1.09-.13s-1.54.88-1.57,1.52.8,1.13,1.26,1.69c.84,1,1.68,2,2.55,3,.36.41.31.63-.09,1-1.33,1.13-1.32,1.14-2.42-.17-1-1.16-2-2.3-2.91-3.48-.33-.41-.57-.47-1-.09-.66.62-1.8,1.12-1.94,1.82s1,1.41,1.55,2.11c.9,1.13,1.85,2.23,2.8,3.33.28.32.3.51,0,.83-1.51,1.4-1.5,1.41-2.83-.18-1.72-2-3.43-4.11-5.18-6.14-.41-.48-.47-.73.07-1.18,3.26-2.69,6.48-5.41,9.71-8.13.37-.32.62-.53,1,0,2,2.41,4,4.79,6,7.18C68.6,256.33,68.7,256.49,68.84,256.7Z"/><path class="cls-2" d="M260.58,70.57a12.41,12.41,0,0,1-1.41,1.69c-.42.36-.7-.24-1-.47-2.32-1.84-4.6-3.73-6.92-5.57-.49-.39-.59-.63-.15-1.17q4-4.89,8-9.84c.39-.49.64-.5,1.11-.11q3.54,2.92,7.13,5.77c.41.33.46.54.12,1-1.22,1.56-1.2,1.57-2.75.32-1.27-1-2.56-2-3.81-3.1-.42-.35-.63-.31-1,.11-1.51,1.82-1.52,1.8.3,3.29,1,.83,2,1.68,3.09,2.49.39.3.41.51.11.9-1.1,1.43-1.09,1.44-2.5.3-1.13-.91-2.28-1.79-3.37-2.75-.52-.46-.81-.39-1.17.15A10.32,10.32,0,0,1,255.19,65c-.5.5-.35.76.16,1.15,1.59,1.23,3.14,2.53,4.71,3.8C260.24,70.11,260.49,70.22,260.58,70.57Z"/><path class="cls-2" d="M133.18,41.84c.06.32-.21.35-.4.42-3,1.22-6,2.41-9,3.64-.44.18-.59.06-.75-.34q-2.42-6-4.89-12.08c-.19-.47-.08-.65.36-.83q4.34-1.72,8.67-3.49c.44-.18.64-.15.85.32.83,1.86.85,1.84-1.06,2.61-1.52.61-3,1.25-4.55,1.84-.45.18-.54.36-.37.83.82,2.28.8,2.28,3,1.41,1.26-.5,2.52-1,3.76-1.52.41-.17.58-.12.78.3.78,1.7.8,1.69-.94,2.39-1.37.55-2.73,1.13-4.12,1.65-.49.19-.64.38-.4.89.39.82.51,2,1.14,2.4s1.64-.49,2.48-.8c1.3-.48,2.58-1,3.85-1.56.56-.25.84-.19,1,.42A15.64,15.64,0,0,0,133.18,41.84Z"/><path class="cls-2" d="M245.36,282.86a3.78,3.78,0,0,1,3,1.46c.4.46.55.82-.17,1.11a4.92,4.92,0,0,0-.9.52,1.19,1.19,0,0,1-1.75,0c-1.09-1-3.77.21-4.07,1.65a1.32,1.32,0,0,0,1.46,1.6,17,17,0,0,0,3-.71,10.72,10.72,0,0,1,3-.55,4,4,0,0,1,3.53,5.57,8.1,8.1,0,0,1-7.49,4.32,4.48,4.48,0,0,1-3.12-1.93c-.27-.37-.25-.6.18-.8a4.59,4.59,0,0,0,.74-.42c.75-.52,1.44-1,2.17.09a1.53,1.53,0,0,0,1.4.44,4.35,4.35,0,0,0,3.26-1.85,1.43,1.43,0,0,0-1.16-2.35,7.31,7.31,0,0,0-2.24.32c-1,.25-2.07.54-3.12.76a3.72,3.72,0,0,1-4.38-4.48C239.29,285.06,242.4,282.83,245.36,282.86Z"/><path class="cls-2" d="M157.84,300.32a7.91,7.91,0,0,1,4.85,1.6,3.91,3.91,0,0,1,1.39,3.27c0,.4-.12.59-.56.49a7.26,7.26,0,0,0-1.22-.17,1.28,1.28,0,0,1-1.42-1.17c-.32-1.41-3-2.11-4.16-1.19a1.3,1.3,0,0,0,.23,2.26c.91.49,1.89.86,2.83,1.29a21.18,21.18,0,0,1,2,1,3.57,3.57,0,0,1,1.91,3.45,4,4,0,0,1-2.25,3.57,8.16,8.16,0,0,1-8.32-1.29,4.43,4.43,0,0,1-1.33-3.42c0-.47.17-.72.7-.57a5.13,5.13,0,0,0,.75.11c.84.11,1.57.07,1.73,1.36.26,2.11,4.12,2.43,5.15,1.49a1.4,1.4,0,0,0,.14-2,4.06,4.06,0,0,0-1.55-1.05l-3.1-1.39c-1.88-.85-2.71-2.13-2.52-3.88a4,4,0,0,1,3.32-3.54C156.94,300.4,157.44,300.37,157.84,300.32Z"/><path class="cls-2" d="M299.16,245c0,2.87-2.41,6.17-5,6.92a4.34,4.34,0,0,1-3.29-.37c-.35-.18-.46-.37-.2-.72a7.06,7.06,0,0,0,.65-1c.35-.73.75-1.13,1.64-.69a1.68,1.68,0,0,0,1.62-.28,4.38,4.38,0,0,0,2-3,1.5,1.5,0,0,0-.55-1.6,1.52,1.52,0,0,0-1.69,0,6.36,6.36,0,0,0-1.44,1.06c-.85.75-1.67,1.53-2.53,2.26a3.45,3.45,0,0,1-4,.59,3.71,3.71,0,0,1-2.22-3.75,7.22,7.22,0,0,1,3.5-5.74,3.84,3.84,0,0,1,3.88-.21c.44.2.58.42.25.84a4.61,4.61,0,0,0-.5.8,1.46,1.46,0,0,1-1.84,1c-1.38-.26-3,1.93-2.69,3.31a1.32,1.32,0,0,0,2.17.69c1-.81,1.93-1.71,2.88-2.58a4.86,4.86,0,0,1,3.66-1.68A4.11,4.11,0,0,1,299.16,245Z"/><path class="cls-2" d="M261.68,72.92a4.29,4.29,0,0,1,.87-2.64c.31-.46.59-.49,1-.07a3.44,3.44,0,0,0,.63.57c.72.5,1.21,1,.54,1.94a1.62,1.62,0,0,0,0,1.55,4.48,4.48,0,0,0,2.68,2.51,1.42,1.42,0,0,0,1.58-.29,1.47,1.47,0,0,0,.38-1.56,7.27,7.27,0,0,0-1-1.93c-.56-.91-1.15-1.81-1.68-2.74a3.4,3.4,0,0,1,0-3.84,3.78,3.78,0,0,1,3.81-1.78,7.34,7.34,0,0,1,5.66,5.22,3.93,3.93,0,0,1-.72,3.21c-.27.39-.49.39-.8.06a8,8,0,0,0-.92-.82,1.18,1.18,0,0,1-.49-1.68c.57-1.31-1.41-3.57-2.82-3.36a1.33,1.33,0,0,0-1,2c.43.84,1,1.62,1.47,2.42s.88,1.31,1.22,2a4,4,0,0,1-3.87,5.86C265.13,79.41,261.69,75.89,261.68,72.92Z"/><path class="cls-2" d="M283.72,264.73a5.28,5.28,0,0,1-2.91-1.15c-2.35-1.79-4.68-3.63-7-5.43-.34-.26-.4-.43-.13-.82,1.47-2.09,1.46-2.1,3.47-.53,1.76,1.37,3.5,2.78,5.29,4.11a2.59,2.59,0,0,0,4-.5c1.23-1.55,1.15-2.84-.39-4.09-2.15-1.74-4.34-3.44-6.55-5.12-.5-.38-.61-.61-.18-1.16,1.46-1.84,1.43-1.86,3.28-.41,1.69,1.32,3.38,2.62,5.06,4,3,2.36,3.3,5.09,1.05,8.14C287.27,263.73,285.65,264.74,283.72,264.73Z"/><path class="cls-2" d="M226.18,50.65a8.71,8.71,0,0,1-5.46-2.5,4.33,4.33,0,0,1-1.12-4.28,10,10,0,0,1,.61-1.78c1.06-2.42,2.15-4.83,3.21-7.25.22-.52.4-.72,1-.44,2.18,1,2.19.95,1.21,3.15-.87,2-1.75,3.91-2.61,5.87-1,2.37.08,4.22,2.67,4.49a2.38,2.38,0,0,0,2.49-1.65c.75-1.56,1.42-3.16,2.13-4.74.48-1.06,1-2.12,1.42-3.19.17-.41.35-.49.78-.32,2.39.91,2.39.9,1.35,3.24-.92,2.07-1.82,4.15-2.78,6.2A5,5,0,0,1,226.18,50.65Z"/><path class="cls-2" d="M84.14,68.57a4.15,4.15,0,0,1-.8,2.56,8.93,8.93,0,0,1-4.12,3.34,4.4,4.4,0,0,1-5.11-1.13c-2-2.08-3.7-4.46-5.55-6.69-.91-1.1-.9-1.11.23-2,1.29-1,1.29-1,2.34.25,1.55,1.91,3.08,3.83,4.66,5.72A2.62,2.62,0,0,0,79.9,71c1.57-1.26,1.73-2.5.43-4.15q-2.52-3.19-5.12-6.31c-.44-.53-.47-.8.11-1.25,1.79-1.4,1.77-1.43,3.22.37s2.74,3.37,4.1,5.07A5.74,5.74,0,0,1,84.14,68.57Z"/><path class="cls-2" d="M301,238.67a5.5,5.5,0,0,1-2.63-.66c-2.57-1.34-5.12-2.71-7.68-4-.48-.25-.52-.48-.28-.95,1.09-2.16,1.08-2.17,3.2-1,1.89,1,3.77,2,5.67,3,2.35,1.24,4.36.19,4.73-2.47a2.35,2.35,0,0,0-1.45-2.43c-1.47-.84-3-1.62-4.48-2.42-1-.55-2-1.12-3.09-1.63-.5-.24-.67-.48-.33-1s.57-1.75,1.21-1.93,1.32.55,2,.9q2.84,1.49,5.67,3c3.26,1.75,4.1,4.33,2.52,7.67a8.66,8.66,0,0,1-2,2.76A4.29,4.29,0,0,1,301,238.67Z"/><path class="cls-2" d="M180.73,37c.6-3.78,1.17-7.51,1.78-11.24.12-.73-.06-1.76.51-2.1s1.38.11,2.1.22c2.27.35,4.54.73,6.81,1.05.66.09.8.34.69,1-.31,1.79-.29,1.78-2.11,1.48-1.43-.24-2.87-.43-4.29-.68-.5-.09-.75,0-.8.55-.06.81-.53,1.77-.24,2.39s1.46.42,2.23.58a24.84,24.84,0,0,0,2.7.43c.6.06.79.22.68.87-.26,1.66-.22,1.66-1.84,1.4-1.15-.19-2.31-.31-3.45-.56-.69-.15-.94,0-1,.71-.16,1.44-.46,2.86-.66,4.29-.07.5-.19.74-.76.59a13.63,13.63,0,0,0-1.77-.27C180.84,37.66,180.59,37.48,180.73,37Z"/><path class="cls-2" d="M250,51.27c-.07-.3-.3-.37-.47-.5-.8-.57-1.59-1.14-2.4-1.68-.42-.27-.42-.5-.16-.9,1.1-1.68,1.08-1.69,2.71-.55,2.45,1.72,4.89,3.45,7.36,5.14.53.36.53.6.18,1.1-1.08,1.52-1.05,1.53-2.59.47-.64-.44-1.27-1.31-1.94-1.19s-1,1.15-1.43,1.78q-2.41,3.39-4.77,6.81c-.34.5-.57.68-1.16.26-1.89-1.35-1.91-1.32-.55-3.26l4.82-6.89C249.73,51.66,249.86,51.45,250,51.27Z"/><path class="cls-2" d="M265.55,269.52a10.84,10.84,0,0,1-1.7-1.73,1.56,1.56,0,0,1,.31-.45c2.44-2.45,4.9-4.89,7.33-7.35.34-.34.53-.37.9,0,1.49,1.41,1.5,1.39.08,2.83-.53.53-1.4,1.06-1.45,1.65s.9,1.11,1.43,1.64c2,2,4,4,6,6,.45.44.43.68,0,1.11-1.65,1.64-1.63,1.66-3.3,0-2-2-4-3.95-5.93-6-.47-.49-.75-.6-1.24,0s-1.28,1.3-1.92,1.95C265.92,269.3,265.8,269.5,265.55,269.52Z"/><path class="cls-2" d="M140.71,39.54c.09.23,0,.36-.23.43l-.27.07c-2.35.79-2.35.79-3-1.59-.78-2.72-1.59-5.44-2.34-8.17-.16-.57-.34-.7-.9-.51-.89.31-1.82.49-2.72.8-.57.2-.74,0-.9-.52-.54-1.84-.56-1.83,1.31-2.36,2.88-.82,5.76-1.62,8.62-2.49.63-.19.81,0,1,.55.51,1.8.53,1.78-1.22,2.3-.77.23-1.91.17-2.21.81s.3,1.47.51,2.23q1.12,4,2.26,7.9C140.62,39.17,140.67,39.36,140.71,39.54Z"/><path class="cls-2" d="M262.47,287.27c-.07.32-.33.4-.52.55-1.88,1.43-1.88,1.43-3.25-.47-1.66-2.3-3.35-4.57-5-6.89-.39-.55-.65-.59-1.16-.17-.7.58-1.48,1.06-2.2,1.63-.4.31-.63.34-1-.11-1.2-1.59-1.22-1.58.38-2.74,2.42-1.76,4.85-3.5,7.25-5.28.49-.36.73-.35,1.09.17,1.09,1.53,1.11,1.5-.39,2.62-.63.47-1.65.77-1.76,1.45s.77,1.29,1.22,1.92c1.61,2.25,3.25,4.49,4.88,6.73Z"/><path class="cls-2" d="M136.53,311c-.86-.23-1.7-.41-2.49-.7-.44-.16-.13-.55-.06-.82.83-3.16,1.66-6.33,2.54-9.48.21-.75.12-1.07-.68-1.21s-1.7-.46-2.56-.67c-.44-.1-.62-.22-.49-.75.47-2,.45-2,2.42-1.46,2.86.77,5.71,1.56,8.58,2.28.67.17.76.42.59,1-.49,1.74-.46,1.72-2.25,1.28-.78-.19-1.7-.86-2.29-.4s-.5,1.43-.71,2.18c-.72,2.67-1.43,5.35-2.16,8C136.9,310.53,136.95,310.94,136.53,311Z"/><path class="cls-2" d="M71.23,263.05c0-.31-.23-.42-.38-.57-.68-.7-1.37-1.4-2.07-2.07-.33-.31-.42-.51-.05-.9,1.4-1.48,1.38-1.5,2.82-.06,2.09,2.09,4.18,4.2,6.29,6.27.43.42.57.67.05,1.17-1.34,1.28-1.3,1.31-2.64,0-.56-.55-1-1.51-1.71-1.51s-1.16,1-1.71,1.51c-2,2-4,3.94-5.94,6-.44.45-.68.43-1.12,0-1.64-1.64-1.66-1.63,0-3.24l6-6C70.92,263.39,71.09,263.21,71.23,263.05Z"/><path class="cls-2" d="M109.13,37.18c.37,0,.39.38.51.61,1.51,2.94,3,5.87,4.5,8.83.32.64.56.81,1.24.43,1.54-.85,3.14-1.6,4.69-2.43.47-.25.72-.28,1,.27.89,1.67.93,1.67-.72,2.52-2.24,1.16-4.49,2.27-6.72,3.44-.5.26-.73.23-1-.31q-2.88-5.73-5.83-11.43c-.24-.46-.21-.72.29-.94C107.79,37.87,108.46,37.51,109.13,37.18Z"/><path class="cls-2" d="M50.65,253c-.1.38-.44.47-.68.63-1.4.93-1.39.92-2.3-.47-1.39-2.14-2.76-4.29-4.18-6.4-.36-.53-.25-.77.25-1.09q5.36-3.44,10.69-6.94c.49-.32.75-.3,1,.23.35.69,1.26,1.33,1.08,2s-1.13.89-1.76,1.3c-2.34,1.53-4.69,3.07-7.05,4.56-.57.36-.7.61-.28,1.22,1,1.44,1.94,2.94,2.9,4.42C50.44,252.58,50.54,252.77,50.65,253Z"/><path class="cls-2" d="M240.54,42.45l-.31.58c-1.57,2.84-3.11,5.69-4.74,8.5-.45.78-.3,1.07.45,1.45,1.54.78,3,1.68,4.56,2.49.47.25.52.46.27.93-.92,1.71-.9,1.72-2.59.78-2.18-1.2-4.34-2.42-6.53-3.61-.49-.26-.6-.46-.3-1q3.13-5.55,6.19-11.15c.28-.51.5-.7,1-.33s1,.58,1.56.88C240.32,42.08,240.56,42.15,240.54,42.45Z"/><path class="cls-2" d="M150.18,299.76l-1.84,9.5c-.22,1.14-.47,2.28-.67,3.42-.08.45-.17.62-.71.53-2.5-.42-2.5-.39-2-2.87.71-3.61,1.42-7.21,2.09-10.83.11-.59.26-.83.9-.63a15.48,15.48,0,0,0,1.85.37C150.12,299.31,150.3,299.45,150.18,299.76Z"/><path class="cls-2" d="M116.22,289.74l-.18.44c-1.63,3.85-3.28,7.69-4.89,11.54-.24.58-.44.76-1.08.48-2.12-.92-2.14-.89-1.22-3.06,1.43-3.38,2.9-6.75,4.29-10.16.29-.72.59-.79,1.21-.46s1,.44,1.56.67C116.1,289.27,116.34,289.35,116.22,289.74Z"/><path class="cls-2" d="M261.9,269.43a2.88,2.88,0,0,0,.28.49q4.26,4.92,8.54,9.82c.33.38.27.58-.07.91-1.81,1.71-1.8,1.72-3.43-.16-2.39-2.75-4.76-5.52-7.19-8.24-.54-.6-.51-.94.12-1.37a15.44,15.44,0,0,0,1.22-1C261.48,269.74,261.61,269.65,261.9,269.43Z"/><path class="cls-2" d="M91.73,47.39c.32,0,.39.26.51.44,2.43,3.59,4.85,7.2,7.29,10.78.27.39.18.55-.17.81-2.06,1.52-2,1.52-3.45-.56-2.05-3.05-4.09-6.11-6.18-9.14-.38-.55-.34-.83.23-1.15S91.16,47.77,91.73,47.39Z"/><path class="cls-2" d="M279.69,72.21a4,4,0,0,1,.39.27c.6.55,1.47,1,1.72,1.7s-.77,1.22-1.26,1.76c-2.52,2.77-5.1,5.47-7.63,8.23-.46.5-.71.46-1.18,0-1.66-1.58-1.67-1.56-.11-3.24l7.58-8.15C279.38,72.62,279.53,72.41,279.69,72.21Z"/><path class="cls-2" d="M34.49,227.77c-.38.12-.51.06-.58-.11s-.11-.29-.17-.44c-.85-2.2-.85-2.2,1.36-3,3.46-1.26,6.93-2.5,10.37-3.8.67-.25.92-.13,1.15.53.75,2.13.78,2.12-1.33,2.89L35,227.59Z"/><path class="cls-2" d="M199.67,300c.65-.12.69.17.75.46q1.23,6.39,2.48,12.79c.09.47,0,.64-.51.74-2.46.53-2.45.55-2.91-1.88-.67-3.49-1.33-7-2-10.47-.17-.84-.16-1.37.9-1.39A6.52,6.52,0,0,0,199.67,300Z"/><path class="cls-2" d="M60.75,72c.17.15.32.27.45.4q4.57,4.57,9.15,9.13c.39.39.35.6,0,1-1.69,1.76-1.68,1.77-3.43,0-2.58-2.58-5.14-5.18-7.75-7.73-.55-.54-.53-.85,0-1.31s.76-.75,1.14-1.12C60.45,72.28,60.6,72.17,60.75,72Z"/><path class="cls-3" d="M72.58,80.42c-.19-.25-.34-.49-.53-.69-1.46-1.6-1.43-1.56.09-3,.66-.63,1-.5,1.52.12,1.28,1.51,1.31,1.49-.18,2.82C73.22,79.88,73,80.1,72.58,80.42Z"/><path class="cls-3" d="M90.44,65.53c-.15.34-.45.47-.7.65-1.71,1.3-1.68,1.27-3-.4-.5-.63-.39-.93.22-1.36,1.74-1.25,1.72-1.28,3,.43C90.13,65.08,90.28,65.31,90.44,65.53Z"/><path class="cls-4" d="M260.88,268.55a2.67,2.67,0,0,0-.36.22c-.24.19-.48.41-.71.61-1.36,1.19-1.69,1.13-2.66-.43a.39.39,0,0,1,.11-.62c.31-.26.6-.55.93-.79s.76-1,1.15-.78a6.12,6.12,0,0,1,1.4,1.48A1.93,1.93,0,0,1,260.88,268.55Z"/><path class="cls-4" d="M150.92,296c-.16,2-.17,2-2,1.63-.49-.1-1.29,0-1.37-.4a5.7,5.7,0,0,1,.29-2c0-.24.24-.24.45-.2.77.16,1.54.32,2.31.46C151,295.59,151,295.78,150.92,296Z"/><path class="cls-4" d="M91,45.93c0,.28-.12.35-.24.44-.62.42-1.26.84-1.87,1.27-.25.18-.44.19-.62-.09-.29-.45-.6-.89-.9-1.32-.19-.27-.12-.45.14-.62.42-.27.82-.59,1.25-.84s.75-.73,1-.5A8.94,8.94,0,0,1,91,45.93Z"/><path class="cls-3" d="M59.79,71.2c-.33.27-.72.53-1.05.86-1.21,1.18-1.73,1.12-2.69-.33a.36.36,0,0,1,.07-.55c.27-.26.52-.55.8-.79s.77-1.11,1.15-1c.59.23,1,.88,1.51,1.36A2.26,2.26,0,0,1,59.79,71.2Z"/><path class="cls-3" d="M49.49,219c.46-.07.51.15.59.36l.39,1.06c.52,1.43.51,1.4-.91,2-.66.26-1.06.24-1.2-.54,0-.24-.17-.47-.24-.71-.13-.47-.65-1.08-.35-1.36A5.39,5.39,0,0,1,49.49,219Z"/><path class="cls-3" d="M116.69,288c-.81-.35-1.62-.69-2.43-1-.16-.07-.13-.25-.11-.42.25-1.57.84-1.93,2.24-1.34s1.66,1.26.68,2.57C117,287.94,116.9,288.08,116.69,288Z"/><path class="cls-3" d="M282.45,69.47c.35.32.72.61,1,1s1.1.67,1,1.13c-.12.65-.84,1-1.3,1.56-.22.25-.38.06-.54-.1s-.56-.51-.82-.78-1.09-.72-1-1.05a5.9,5.9,0,0,1,1.3-1.57A1.05,1.05,0,0,1,282.45,69.47Z"/><path class="cls-5" d="M291.21,228.23a21.09,21.09,0,0,1-1.32,2.28c-.22.3-.61-.14-.89-.29-1.29-.67-1.29-.68-.62-1.91.87-1.61,1.08-1.66,2.57-.53A.47.47,0,0,1,291.21,228.23Z"/><path class="cls-4" d="M278.19,249l-1,1.26c-.84,1.07-.81,1-1.94.24-.71-.49-.83-.91-.19-1.5.11-.1.18-.26.3-.37.37-.36.57-1.17,1.06-1s1.07.74,1.59,1.14A1,1,0,0,1,278.19,249Z"/><path class="cls-6" d="M229.15,34.79a19.9,19.9,0,0,1-2.28-1.07c-.36-.22.07-.62.19-.91.58-1.37.59-1.37,1.93-.78,1.52.68,1.64,1.17.63,2.57C229.52,34.74,229.46,34.89,229.15,34.79Z"/><path class="cls-5" d="M293.29,224.29a20.78,20.78,0,0,1-1.24,2.24c-.25.36-.62-.11-.89-.25-1.34-.66-1.33-.68-.65-2,.77-1.47,1.29-1.56,2.6-.46C293.23,223.94,293.35,224,293.29,224.29Z"/><path class="cls-4" d="M232,33.39c.72.33,1.52.68,2.31,1.06.22.11.1.32,0,.5-.55,1.82-.66,1.87-2.38,1.11a1,1,0,0,0-.17-.07c-1-.23-1.08-.8-.58-1.59a5.81,5.81,0,0,0,.35-.77A.36.36,0,0,1,232,33.39Z"/><path class="cls-4" d="M275.44,252.55a27.91,27.91,0,0,1-1.85,2.14c-.19.19-.52-.26-.76-.44-1.17-.89-1.16-.9-.26-2.05s1.61-1.28,2.64,0C275.29,252.31,275.35,252.41,275.44,252.55Z"/><path class="cls-4" d="M68.59,62.75A15.18,15.18,0,0,1,67.23,61c-.23-.4.33-.51.55-.73s.61-.46.87-.73c.54-.57.91-.61,1.43.11.85,1.19.91,1.15-.26,2.1Z"/><path class="cls-4" d="M74.45,58.16a1.33,1.33,0,0,0-.36.15c-.3.22-.59.47-.88.71-1.13.92-1.09.88-2.09-.22-.55-.61-.5-1,.15-1.37.16-.1.29-.25.45-.35.44-.26.79-1,1.27-.76s.87,1,1.29,1.46A2.61,2.61,0,0,1,74.45,58.16Z"/><path class="cls-7" d="M108.27,60.06l1.34-.79c.08.17.24.2.4.23a4.07,4.07,0,0,1-1.35.76Z"/><path class="cls-8" d="M156.36,27.55a.87.87,0,0,1,.22-.83.72.72,0,0,1,.12.65Z"/><path class="cls-9" d="M86.73,278.92a.66.66,0,0,1,.6-.33.62.62,0,0,1-.38.56Z"/><path class="cls-10" d="M79.34,273.61l.37-.56a.73.73,0,0,1-.15.78Z"/><path class="cls-1" d="M99.44,256.08a21.48,21.48,0,0,1-5.55.89,6.85,6.85,0,0,1-3.75-1.09,52.16,52.16,0,0,1-13.8-13.7c-1.63-2.34-1.37-4.89-1.08-7.47,0-.38.1-.75.15-1.12.17-1.37,0-1.64-1.47-1.78s-2.7-.26-4-.37a2.3,2.3,0,0,1-1.8-1c-4.25-5.85-7.92-12-9.58-19.13a11.32,11.32,0,0,1,1.38-8.63c.27-.44.23-.64-.23-.85a7.29,7.29,0,0,1-1.32-.74c-5.89-4.35-5.69-5.14-6.74-11.53a58.22,58.22,0,0,1-.79-11.3c0-.82.11-1.63.21-2.45.23-1.9,1.62-2.83,3.11-3.64,1.22-.66,1.25-.65.27-1.59-.8-.76-1.62-1.5-2.45-2.22a5.22,5.22,0,0,1-1.87-3.77A61.84,61.84,0,0,1,51.18,146c0-.21.12-.42.17-.64a7.34,7.34,0,0,1,4.72-5.68c.85-.34,1.64-.81,2.47-1.18.52-.23.54-.47.24-.92-.84-1.22-1.62-2.48-2.48-3.69a5.72,5.72,0,0,1-.88-5.18,93.66,93.66,0,0,1,5.64-14.91,10.13,10.13,0,0,1,8.73-6.29c.9-.08,2.15,0,2.57-.64s-.3-1.7-.56-2.56-.65-2-1-2.95a1.74,1.74,0,0,1,.2-1.87c1.46-1.67,2.56-3.59,3.87-5.36,14.3-19.34,33-32.71,55.56-40.73A124.24,124.24,0,0,1,159.68,47a126.74,126.74,0,0,1,15.76-.66,120.68,120.68,0,0,1,115.51,96.93,115,115,0,0,1,2.27,28c-1.27,30.09-12,56.33-32.55,78.39a118.13,118.13,0,0,1-61.16,35.2,120.26,120.26,0,0,1-31.72,2.89A125.68,125.68,0,0,1,122.62,278a99.46,99.46,0,0,1-21.81-12.56c-2-1.56-2.5-4-2.07-6.52C98.9,258,99.17,257.13,99.44,256.08Z"/><path class="cls-2" d="M195.13,309c0,4-2.07,6.39-5.95,6.79-1.72.18-3.45.35-5.17.56-.58.07-.75-.12-.81-.69-.41-4.14-.84-8.27-1.32-12.4-.1-.84.13-1.08,1-1.13,1.6-.1,3.2-.31,4.79-.49,3.82-.44,6.45,1.41,7.24,5.14A9.59,9.59,0,0,1,195.13,309Zm-3.46-2.12a3.47,3.47,0,0,0-3.88-2.6c-.56,0-1.13.14-1.69.16s-.92.23-.83,1c.26,2,.41,4,.64,6s.24,2,2.32,1.86l.28,0c2.36-.27,3.52-1.57,3.53-4.31A8.46,8.46,0,0,0,191.67,306.91Z"/><path class="cls-2" d="M178.07,316.72c-1.73-.12-1.73-.12-2.23-1.8s-.46-1.54-2.06-1.57c-1,0-2.08,0-3.11-.11a.65.65,0,0,0-.82.53c-.05.18-.14.35-.21.53-.89,2.25-.89,2.24-3.29,2-.55-.05-.61-.22-.4-.71,1.81-4.29,3.6-8.59,5.41-12.89.09-.22.15-.52.48-.5.91,0,1.82.07,2.73.14.33,0,.32.35.39.58,1.46,4.36,2.92,8.72,4.39,13.07.19.57.14.83-.53.74A5.67,5.67,0,0,0,178.07,316.72ZM172.91,306l-1.8,4.52c-.12.29,0,.39.31.42a20.92,20.92,0,0,0,3.22.06l-1.52-5Z"/><path class="cls-2" d="M190.53,39.12,191.92,37c2.19-3.27,4.39-6.53,6.55-9.82a1,1,0,0,1,1.3-.51c2.26.57,2.28.53,2.59,2.85.54,4,1.06,8,1.61,12,.1.69-.07.77-.72.62-2.31-.53-2.36-.5-2.56-2.83-.07-.84-.35-1.2-1.17-1.34-1.15-.19-2.27-.49-3.4-.78a.88.88,0,0,0-1.16.44c-.44.75-.73,1.89-1.49,2.08s-1.82-.3-2.73-.5Zm7.71-6.57c-.46.8-1.6,1.72-1.27,2.34s1.75.53,2.68.78l.18,0c.38.13.43-.09.4-.38l-.54-5C199.1,31.2,198.63,31.85,198.23,32.54Z"/><path class="cls-2" d="M277.68,128.39a.81.81,0,0,1,1,.72c2.08,7.43,4.08,14.88,5.89,22.38a1.1,1.1,0,0,1-.74,1.49c-5.43,2.58-10.84,5.22-16.27,7.81a1.07,1.07,0,0,0-.72,1.13c0,4.88,0,9.77-.33,14.64a2,2,0,0,0,1.15,2.13c5.09,2.9,10.19,5.79,15.11,9a1.33,1.33,0,0,1,.65,1.77q-3,10.25-5.81,20.54a1,1,0,0,1-1.23.9c-5.82-.19-11.65-.32-17.47-.53a1.93,1.93,0,0,0-2.15,1.26,81.5,81.5,0,0,1-5.54,9.45,2.15,2.15,0,0,0-.15,2.44c2.41,4.64,4.32,9.52,7,14,.91,1.5.88,1.51-.33,2.73-4.9,4.9-9.82,9.8-14.7,14.73a1.17,1.17,0,0,1-1.72.25c-4.64-2.69-9.21-5.48-13.65-8.47a1.68,1.68,0,0,0-2.15,0,69.74,69.74,0,0,1-10.26,6,1,1,0,0,0-.66,1.07c.22,4.81.36,9.63.62,14.44,0,.92-.29,1.18-1.08,1.36-4.49,1-9,1.62-13.6,2.26a38.1,38.1,0,0,1-4.13.46c-.58,0-.74-.08-.75-.68,0-3.81-.13-7.62-.21-11.43-.1-4.82-.19-9.64-.33-14.45a1.18,1.18,0,0,1,1-1.41c18.5-5.49,33.53-15.91,44.62-31.76A74.15,74.15,0,0,0,254,176.85a75.08,75.08,0,0,0-7.66-41.62,80.45,80.45,0,0,0-27.44-31.13A85.1,85.1,0,0,0,184.5,90.58a62.32,62.32,0,0,0-7.89-.86c-.83,0-1-.31-1-1.12,0-3.56,0-7.12,0-10.69,0-.65.17-.88.84-.86,2.17,0,4.35,0,6.52,0a1.26,1.26,0,0,0,1.36-.83c3-6.13,6-12.23,8.91-18.36a1,1,0,0,1,1.35-.68,194.49,194.49,0,0,1,21,5.24c.67.2.81.48.76,1.12-.56,7.22-1.09,14.45-1.67,21.67a1.15,1.15,0,0,0,.73,1.38,89.88,89.88,0,0,1,10.48,6,1.61,1.61,0,0,0,2.12-.05c5.12-3.68,10.28-7.3,15.41-11a.89.89,0,0,1,1.4.11q8.46,8.52,17,17c.54.54.53.87.11,1.47-3.65,5.17-7.26,10.38-10.91,15.56a1.18,1.18,0,0,0-.05,1.5c2.11,3.59,4.07,7.25,6,10.94a1.15,1.15,0,0,0,1.23.73"/><path class="cls-2" d="M134,216.31l10.78-9.93q32.39-29.84,64.78-59.7a2,2,0,0,1,1.5-.59q13.38,0,26.76,0c.86,0,1.06.24,1,1.05-.07,1.48,0,3,0,4.44,0,.6-.14.81-.78.81-4.06,0-8.13.12-12.19.16a1.61,1.61,0,0,0-1.23.54q-8.2,8.32-16.4,16.62a2,2,0,0,1-1.57.64c-4.91-.08-9.83-.12-14.74-.16-1,0-1,0-.55.93,1.53,3.07,3,6.15,4.62,9.21a1.08,1.08,0,0,1-.27,1.52Q184.86,192.41,174.06,203c-.38.37-.78.73-1.23,1.15a1.72,1.72,0,0,0,1.1.18h22.22c1.35,0,2.71.09,4.06.1.58,0,.84.12.83.79,0,3.5,0,7,0,10.5,0,.56-.14.76-.73.76q-14.7,0-29.41-.06c-1.13,0-2.27-.07-3.4-.07l-32.44,0Z"/><path class="cls-2" d="M166.36,234.69H135.92c-1.16,0-2.33,0-3.49.08-.48,0-.66-.14-.66-.64q0-7.37,0-14.75c0-.49.16-.65.65-.65,4.73,0,9.45,0,14.18.07l.76,0,34.88.15c5.8,0,11.59.09,17.39.1.77,0,1,.26,1,1,.07,4.6.16,9.2.29,13.79,0,.63-.28.58-.68.58l-10.3.08-13,0H166.36Z"/><path class="cls-2" d="M129.78,231.48,122,226.4a7.66,7.66,0,0,0-1.27-.81c-1.95-.76-2.29-2.19-2.24-4.16.2-7.21.22-14.42.31-21.64q.18-13.94.38-27.87c.12-8.35.23-16.69.38-25,.12-6.45.3-12.91.45-19.36,0-.19,0-.38,0-.57.22-3.09,2-4.31,5-3.37a2.28,2.28,0,0,1,1.83,2.61,87.75,87.75,0,0,0,.07,10.1c.19,7.71.46,15.42.69,23.13q.32,10.62.63,21.24.44,14.26.89,28.51.32,10.57.63,21.15C129.73,230.64,129.75,231,129.78,231.48Z"/><path class="cls-2" d="M133.4,214.12a20.81,20.81,0,0,1-.56-6.72q.13-8.69.26-17.39.22-15.26.43-30.52c.05-3.65.13-7.31.18-11q.11-7.61.18-15.22c0-1.42-.08-2.83-.1-4.25a6.48,6.48,0,0,1,.39-2.51,3.1,3.1,0,0,1,3.09-2c1.2,0,2,.69,2.46,2.12a8.17,8.17,0,0,1,.4,2.51c.11,8,.59,16,.91,24.07q.56,14.21,1.18,28.41.49,11.42,1,22.83a1.65,1.65,0,0,1-.58,1.48c-2.85,2.53-5.67,5.1-8.5,7.65C133.92,213.79,133.74,214.06,133.4,214.12Z"/><path class="cls-2" d="M208.06,171.68c4.44,0,8.88,0,13.31,0,.59,0,.82.12.82.77,0,2.3.06,4.59.15,6.89,0,.73-.1,1-.95,1-7.62-.09-15.24-.13-22.85-.17a.87.87,0,0,1-.95-.54c-1.13-2.42-2.31-4.82-3.45-7.24-.41-.87-.32-1,.7-1h13.22Z"/><path class="cls-2" d="M167.45,118.16c0-2.4,0-4.79,0-7.19a8.76,8.76,0,0,0-.08-1.22c-.24-1.65-.75-2.11-2.4-2.43-.46-.09-1.39.26-1.3-.6s.9-.31,1.35-.32c3.28,0,6.55,0,9.83,0,.29,0,.75-.24.83.32s-.46.45-.78.54-.74.14-1.11.21a2.1,2.1,0,0,0-1.85,2,15.7,15.7,0,0,0-.13,2c0,4.76,0,9.52.05,14.27a12.08,12.08,0,0,0,.28,2.44c.92,4.26,4,5.25,7.31,5.24a10.94,10.94,0,0,0,2-.18c3.67-.69,5.53-3,5.73-7.21.23-4.75.08-9.51.07-14.27,0-.38,0-.76-.06-1.13-.19-2-.91-2.84-2.92-3.23l-.46-.09c-.28,0-.56-.07-.54-.49s.35-.36.61-.37c.44,0,.88,0,1.32,0h7.37c.26,0,.59-.09.63.36s-.24.45-.53.5-.56.09-.83.16a2.84,2.84,0,0,0-2.55,2.94c-.35,4.56-.09,9.13-.16,13.7a25.33,25.33,0,0,1-.18,2.83c-.62,4.86-3.59,7.76-8.49,8.26a18.82,18.82,0,0,1-5.27-.15,8.63,8.63,0,0,1-7.48-7.77,9.18,9.18,0,0,1-.15-1.22c0-2.61,0-5.23,0-7.84Z"/><path class="cls-2" d="M177.41,246c3.47,0,6.93,0,10.4,0,.76,0,1.07.17,1.05,1,0,1.51,0,3,.05,4.54,0,.3.08.67-.42.66s-.7,0-.82-.51c-.74-3.65-2.17-3.88-5.17-4-2.33-.07-4.66,0-7,0-1.07,0-1.36.26-1.37,1.34,0,3,0,6,0,9,0,.39,0,.66.54.65,2.24,0,4.48,0,6.71-.07s2.8-.7,3.38-2.87a6.54,6.54,0,0,0,.16-.74c.06-.41.33-.46.68-.47s.45.24.45.55q0,4.4,0,8.79c0,.25,0,.53-.35.52s-.65.08-.75-.36-.25-.91-.36-1.37a2.64,2.64,0,0,0-2.6-2.21c-2.46-.09-4.91-.06-7.37-.09-.38,0-.48.18-.48.52,0,3.25,0,6.5.08,9.74.07,2,.76,2.56,2.75,2.81H177c.34.12,1-.16,1,.47s-.62.38-1,.39c-3.34,0-6.68,0-10,0h-.47c-.24,0-.45,0-.48-.32a.41.41,0,0,1,.41-.51,8.53,8.53,0,0,0,1.84-.4,1.81,1.81,0,0,0,1.29-1.48,10.18,10.18,0,0,0,.18-2q0-9.55,0-19.1c0-.31,0-.63,0-.94a2.46,2.46,0,0,0-2.37-2.59c-.22,0-.44-.05-.66-.08s-.67,0-.67-.47.37-.41.67-.42h10.69Z"/><path class="cls-2" d="M208.67,189.64c-3.37,0-6.74,0-10.11,0-.62,0-.88-.08-.86-.79,0-2.08,0-4.16,0-6.24,0-.63.19-.78.8-.79q11.43,0,22.87-.16c.8,0,1,.22,1,1-.06,2,0,4,0,6,0,.64-.13.87-.82.87-4.28,0-8.57,0-12.85,0Z"/><path class="cls-2" d="M210.36,169.71l4.1-4.3q5.19-5.42,10.38-10.85a1.53,1.53,0,0,1,1.23-.52c4,0,8,0,12,0,.68,0,.93.13.92.87,0,1.57.05,3.15.13,4.72,0,.66-.08.93-.85.91-3.68-.1-7.37-.11-11-.18a1.77,1.77,0,0,0-1.48.61c-2.64,2.83-5.33,5.62-8,8.44a1.68,1.68,0,0,1-1.48.59C214.41,169.87,212.53,169.81,210.36,169.71Z"/><path class="cls-2" d="M203.47,233.94c-.16-3.52-.31-6.88-.45-10.23-.07-1.57-.12-3.14-.22-4.71a1.06,1.06,0,0,1,.31-.92l9.7-9.68a2.21,2.21,0,0,1,.41-.17c0,1.52,0,2.95,0,4.37.06,3.34.15,6.67.23,10a1.53,1.53,0,0,1-.38,1.2q-4.63,4.92-9.23,9.86A3.84,3.84,0,0,1,203.47,233.94Z"/><path class="cls-2" d="M154.68,274.3H149.1c-.29,0-.68.11-.68-.41s.33-.39.6-.42l.66-.06c2.16-.26,2.83-.94,2.85-3.1,0-4.1,0-8.19,0-12.29,0-2.61,0-5.23,0-7.84,0-2.34-.71-3-3-3.25l-.66-.06c-.29,0-.46-.14-.45-.47s.25-.38.52-.38h1.89c3.15,0,6.3,0,9.45,0,.29,0,.76-.2.77.39s-.44.44-.75.47c-2.85.34-3.38.89-3.39,3.78,0,6.33,0,12.67,0,19,0,.22,0,.44,0,.66.12,2.18.72,2.83,2.88,3.08l.56.06c.29,0,.69,0,.68.45s-.41.38-.7.38Z"/><path class="cls-2" d="M155.85,106.39c1.83,0,3.65,0,5.48,0,.27,0,.68-.19.73.33s-.39.45-.7.5c-2.9.41-3.36.73-3.4,3.59-.09,6.61-.16,13.23,0,19.84.07,2.37.65,2.87,3,3.14.19,0,.38,0,.56,0s.49.06.5.41-.24.38-.5.38H160c-3.15,0-6.3,0-9.45,0-.34,0-.93.32-1-.33s.57-.38.9-.47.75-.11,1.12-.19a2,2,0,0,0,1.94-2,16.09,16.09,0,0,0,.17-2.35q0-8.65,0-17.29c0-.69,0-1.38-.11-2.07-.16-1.72-.76-2.33-2.45-2.57-.34,0-.69-.1-1-.13s-.57,0-.57-.44.33-.38.6-.38Z"/><path class="cls-2" d="M195.85,184.2c0,2.39,0,4.47,0,6.54a1.3,1.3,0,0,1-.42,1q-5.23,5.38-10.44,10.78a1.31,1.31,0,0,1-1.16.42c-1.9-.12-3.81-.19-6-.29Z"/><path class="cls-2" d="M131.19,112.77a18.5,18.5,0,0,1-.87,4.37,2.84,2.84,0,0,1-1.88,1.93c-1.84.63-3.53,1.65-5.48,2-1.14.19-1.68-.17-1.57-1.32.23-2.28.67-4.46,3.07-5.66a49.89,49.89,0,0,1,5.19-2.67C131,110.9,131.26,111.11,131.19,112.77Z"/><path class="cls-2" d="M230.63,173.41c.13,2.71.23,5.12.35,7.53a1,1,0,0,1-.33.75l-6.71,7.15s-.1,0-.17.07c0-1.72,0-3.42,0-5.13a1.62,1.62,0,0,0,0-.28c-.42-2.2.64-3.72,2.15-5.15S229,175.19,230.63,173.41Z"/><path class="cls-2" d="M203,215.47c0-1.91,0-3.53,0-5.16s0-3.4,0-5.11c0-.44,0-.7.59-.7,3.09,0,6.17,0,9.52,0Z"/><path class="cls-2" d="M143.52,116.53a3.14,3.14,0,0,1-1.46,3,13.26,13.26,0,0,1-5,2.3c-1.53.34-2.15-.37-1.76-1.88a6.4,6.4,0,0,1,1.36-2.46,22.78,22.78,0,0,1,5.08-4.9c1.07-.69,1.56-.4,1.63.84C143.39,114.44,143.46,115.45,143.52,116.53Z"/><path class="cls-2" d="M240.2,159.6c0-1.82,0-3.63,0-5.45a.81.81,0,0,1,.27-.67l5.36-4.71c.18,1.79.33,3.41.5,5a.58.58,0,0,1-.22.5l-5.56,5.38Z"/><path class="cls-2" d="M183.48,98.63a2.61,2.61,0,0,1,2.68,2.67,2.58,2.58,0,0,1-2.63,2.62,2.65,2.65,0,0,1-.05-5.29Z"/><path class="cls-2" d="M173.57,98.63a2.65,2.65,0,1,1-2.65,2.62A2.6,2.6,0,0,1,173.57,98.63Z"/><path class="cls-2" d="M223.67,178.54q0-3.14,0-6.27c0-.27.1-.4.39-.38l5.73.34-5.73,6.37Z"/><path class="cls-2" d="M154.77,238.87a2.53,2.53,0,0,1,2.49,2.46,2.51,2.51,0,1,1-5,.07A2.51,2.51,0,0,1,154.77,238.87Z"/><path class="cls-2" d="M158.28,101.68a2.49,2.49,0,1,1-2.48-2.45A2.48,2.48,0,0,1,158.28,101.68Z"/><path class="cls-3" d="M245.57,145.76l-5.79,6.11c0-2,0-3.85,0-5.65,0-.39.21-.47.54-.46Z"/><path class="cls-2" d="M96.68,80.6a117.36,117.36,0,0,1,11.18-8.7A120.88,120.88,0,0,1,120,64.59a115.17,115.17,0,0,1,13.74-6.14,100.15,100.15,0,0,1,14.47-4.15q3.27-.67,6.57-1.11t6.58-.62h1.15c.36,0,.72,0,1.08,0a.81.81,0,0,1,.57.09c.12.1.17.27.16.55q0,.8,0,1.61t0,1.61a.68.68,0,0,1-.15.55.83.83,0,0,1-.56.15,79.26,79.26,0,0,0-11.28,1.05,87.63,87.63,0,0,0-11,2.58,108,108,0,0,0-18.15,7.34,119,119,0,0,0-16.61,10.38q-1.44,1.07-2.85,2.19t-2.77,2.29c-.22.18-.33.33-.33.47s.11.27.35.42a8.4,8.4,0,0,1,1.1,1,1.51,1.51,0,0,0,1.12.57,1.92,1.92,0,0,0,1.06-.64c.34-.34.68-.74,1-1a90,90,0,0,1,14.26-10.15,94.84,94.84,0,0,1,15.93-7.26,100.36,100.36,0,0,1,13.71-3.73,107.06,107.06,0,0,1,14.09-1.81,1.16,1.16,0,0,1,.9.19,1.07,1.07,0,0,1,.18.88c0,.44,0,.88,0,1.32s0,.88,0,1.32a.87.87,0,0,1-.14.65.86.86,0,0,1-.63.22q-4.33.22-8.6.85t-8.48,1.64a93.82,93.82,0,0,0-20.93,7.66,86.53,86.53,0,0,0-18.38,12.62c-.27.25-.39.43-.37.61s.17.34.42.53a11.4,11.4,0,0,1,.92.92,1.67,1.67,0,0,0,.93.59,1.32,1.32,0,0,0,.89-.48c.31-.29.62-.64.93-.89a91.84,91.84,0,0,1,17.22-11.14,88.06,88.06,0,0,1,19.31-6.9q4-.92,8-1.47t8.09-.75a.94.94,0,0,1,.69.14.82.82,0,0,1,.16.67c0,.49,0,1,0,1.46s0,1,0,1.47a.92.92,0,0,1-.13.62.84.84,0,0,1-.64.22,84.86,84.86,0,0,0-17.25,2.58A83.28,83.28,0,0,0,130,82.41a85.14,85.14,0,0,0-8.84,5.08,86.81,86.81,0,0,0-8.18,6.1c-.26.22-.41.38-.44.57s.08.38.34.65c.79.82,1.16,1.23,1.57,1.25s.86-.32,1.79-1A98.41,98.41,0,0,1,135.6,83.8a84.19,84.19,0,0,1,21.58-6.09c1-.15,2.09-.24,3.15-.3s2.11-.08,3.17-.08a1,1,0,0,1,.65.16.76.76,0,0,1,.18.64c0,.53,0,1.07,0,1.61s0,1.07,0,1.61a.59.59,0,0,1-.14.47.67.67,0,0,1-.48.12,50,50,0,0,0-12,1.32,83,83,0,0,0-11.51,3.62,87.31,87.31,0,0,0-22.07,12.44c-.13.1-.34.19-.49.31a.36.36,0,0,0-.14.48,4.29,4.29,0,0,0,.49.79,8.25,8.25,0,0,0,.62.71c.08.09.19,0,.31,0s.24-.18.34-.25Q122.1,99.6,125,98t5.9-3.09a114.58,114.58,0,0,1,12.91-5.46,73.73,73.73,0,0,1,13.6-3.37q1.52-.22,3-.35t3.07-.15a.82.82,0,0,1,.65.18.86.86,0,0,1,.14.63c0,.42,0,.85,0,1.28s0,.85,0,1.28a.8.8,0,0,1-.17.67,1.09,1.09,0,0,1-.67.21A87.2,87.2,0,0,0,153,91.38a83.84,83.84,0,0,0-32.16,14.34l-.17.1a.32.32,0,0,0-.13.12,18.47,18.47,0,0,0-1.92,2,1.69,1.69,0,0,1-.27.3c-1,.84-2.31,2.22-3.17,3.05-1.86,1.81-3.64,3.68-5.31,5.64a64.82,64.82,0,0,0-4.68,6.17,22.07,22.07,0,0,1-1.28,1.8,6.62,6.62,0,0,1-1.65,1.48,1.06,1.06,0,0,0-.46.52,1.22,1.22,0,0,0,0,.71,6.2,6.2,0,0,1,.09,2,10.07,10.07,0,0,1-.45,2,57.1,57.1,0,0,1-2.25,5.86,53.81,53.81,0,0,1-2.9,5.57,8,8,0,0,1-1.35,1.74,4.85,4.85,0,0,1-1.9,1.12,1.37,1.37,0,0,0-.78.52.86.86,0,0,0,0,.92,8,8,0,0,1,.94,3.41,30.93,30.93,0,0,1-.05,3.52,55.62,55.62,0,0,1-1,8.2,48.57,48.57,0,0,1-2.26,7.95,2.31,2.31,0,0,0-.16,1.32,2,2,0,0,0,.75,1.11,5,5,0,0,1,1.4,1.89,14.32,14.32,0,0,1,.72,2.24,46.06,46.06,0,0,1,1.06,5.27,39.37,39.37,0,0,1,.39,5.37,14.21,14.21,0,0,1-.11,1.75c-.07.58-.17,1.15-.28,1.72a3.28,3.28,0,0,0,.05,1.7,2.41,2.41,0,0,0,1.14,1.29,3,3,0,0,1,.62.49,7,7,0,0,1,.53.61,46.29,46.29,0,0,1,4.91,7.6,38.79,38.79,0,0,1,3.17,8.48,9,9,0,0,1,.22,1.21,4.78,4.78,0,0,1,0,1.22.78.78,0,0,0,.11.63.93.93,0,0,0,.56.28,7.06,7.06,0,0,1,2.15.84,8.92,8.92,0,0,1,1.81,1.43c1.14,1.15,2.3,2.29,3.45,3.43s2.29,2.3,3.38,3.5a38.59,38.59,0,0,0,4.28,4c1.51,1.22,3.1,2.35,4.74,3.43l5.87,3.89c2,1.29,3.93,2.56,5.94,3.78a7.31,7.31,0,0,1,2.25,2.14,11.74,11.74,0,0,1,1.37,2.79,24.3,24.3,0,0,1,1.06,4.5c.23,1.52.37,3.06.56,4.59s.33,3,.49,4.56.31,3,.49,4.56a1.33,1.33,0,0,1-.14.94.93.93,0,0,1-.79.33,12.36,12.36,0,0,0-4.87,1.17,32.27,32.27,0,0,0-4.32,2.48,16.17,16.17,0,0,1-7.34,2.64,18.9,18.9,0,0,1-7.69-1,38.41,38.41,0,0,1-6.72-2.87,29.65,29.65,0,0,1-5.94-4.27,11.36,11.36,0,0,1-2.36-3,7.51,7.51,0,0,1-.89-3.7.67.67,0,0,0-.14-.49.69.69,0,0,0-.45-.19c-.55-.07-1.09-.15-1.64-.23a13.21,13.21,0,0,0-1.64-.14,4.8,4.8,0,0,1-1.53-.26,5.38,5.38,0,0,1-1.36-.71c-1-.72-2-1.5-2.94-2.31s-1.86-1.66-2.75-2.52c-1.54-1.49-3.07-3-4.51-4.57a51.31,51.31,0,0,1-4.07-5,9.45,9.45,0,0,1-1.18-2.2,7.9,7.9,0,0,1-.49-2.44,2.24,2.24,0,0,1,.09-.78,2,2,0,0,1,.4-.69c.35-.4.47-.75.37-1s-.4-.47-.9-.57l-.33-.06a1.73,1.73,0,0,0-.33,0,5,5,0,0,1-3-.71,8.06,8.06,0,0,1-2.23-2.13c-.47-.63-.93-1.28-1.35-1.95a18.38,18.38,0,0,1-1.13-2.07c-.94-2-2-4-3.07-6s-2.1-4-3-6c-.3-.68-.57-1.37-.79-2.07a15.16,15.16,0,0,1-.54-2.15,6.26,6.26,0,0,1-.06-1.92,4.11,4.11,0,0,1,.7-1.8,5.3,5.3,0,0,0,.38-.65c.11-.23.22-.46.32-.68a1,1,0,0,0,.1-.75,1,1,0,0,0-.6-.51,11.51,11.51,0,0,1-1.2-.62,7.85,7.85,0,0,0-1.23-.59,1.62,1.62,0,0,1-.86-.76,7,7,0,0,1-.47-1.1c-.38-1-.7-2-1-3.06s-.55-2.07-.8-3.11c-.54-2.25-1.07-4.51-1.46-6.79a40.39,40.39,0,0,1-.64-6.91c0-.34,0-.69,0-1s.07-.69.13-1A3.3,3.3,0,0,1,57,175a2.53,2.53,0,0,1,1-.91,2.27,2.27,0,0,0,1.32-1.54,2.69,2.69,0,0,0-.58-2,5.06,5.06,0,0,0-.61-.73,3.07,3.07,0,0,0-.76-.55,2.52,2.52,0,0,1-1.15-1.08,3.2,3.2,0,0,1-.32-1.55q0-2.91.16-5.81t.35-5.8c.13-1.65.29-3.3.5-4.93a48,48,0,0,1,.88-4.88,9.24,9.24,0,0,1,1-2.54,6.29,6.29,0,0,1,1.84-2,6.13,6.13,0,0,1,.86-.54,2.29,2.29,0,0,1,1-.24,1,1,0,0,0,.91-.39,1.26,1.26,0,0,0,.09-1,4.06,4.06,0,0,0-.3-.8,4.56,4.56,0,0,0-.45-.72,5.69,5.69,0,0,1-1.15-2.82,7.84,7.84,0,0,1,.3-3c.13-.45.26-.91.4-1.36s.3-.9.48-1.33q1.25-3,2.52-5.91t2.55-5.9a15.6,15.6,0,0,1,.86-1.68c.32-.54.66-1.07,1-1.6a5.91,5.91,0,0,1,2.16-2,10.29,10.29,0,0,1,2.74-.94,1,1,0,0,1,.54,0,1,1,0,0,0,1.49-1.25,3.9,3.9,0,0,0-.25-.86,6.37,6.37,0,0,0-.4-.8,5.13,5.13,0,0,1-.77-2.89,5.87,5.87,0,0,1,1-2.82,27.82,27.82,0,0,1,2-2.77,32.22,32.22,0,0,1,2.28-2.52l6.4-6.37,6.41-6.36m8,35.07a28.13,28.13,0,0,0,5.87-4.41,16.53,16.53,0,0,0,4-5.23c.87-2-.08-4.12-2.54-4.15-.57,0-1.13,0-1.7,0-4,.08-7.6,1-10.31,4.17-.61.72-1.34,1.33-2,2a24.29,24.29,0,0,0-3.59,4.49A2.87,2.87,0,0,0,92.6,120a6.09,6.09,0,0,0,2.47.38A12.42,12.42,0,0,0,101.34,118.87ZM95,93.52c-.87-1.28-2-1.43-3-.3a31,31,0,0,1-3,2.88,30.49,30.49,0,0,0-5.67,6.55,4.7,4.7,0,0,0-.69,3.52c.22,1,.27,2.06.44,3.08a14.59,14.59,0,0,0,1.21,4.83,1.62,1.62,0,0,0,2.44.79,7.73,7.73,0,0,0,1.86-1.29,25.91,25.91,0,0,0,5.75-8,14.67,14.67,0,0,0,2-6.83A9.23,9.23,0,0,0,95,93.52ZM88.16,233.41c-2.13.39-2.44-.09-1.55,2.5a15.72,15.72,0,0,0,8.7,9.81,12.78,12.78,0,0,0,12.21-.65c.68-.4,1.08-.82.29-1.56a5.26,5.26,0,0,1-.92-1.42,10.32,10.32,0,0,0-3.93-4.34,56.21,56.21,0,0,0-5.23-2.82,18.63,18.63,0,0,0-7.5-1.66A18,18,0,0,0,88.16,233.41ZM72.39,138.74a4.76,4.76,0,0,0,1.53,1.51c.72.44,1.19.42,1.68-.37a34.23,34.23,0,0,0,5-13.45,9.52,9.52,0,0,0-3.79-9.16,1.43,1.43,0,0,0-1.94-.06A10,10,0,0,0,72,120.29a17.21,17.21,0,0,0,.43,18.45Zm13.35,85.19c2.37,0,2.9-.77,2.14-3.05-.06-.18-.13-.35-.19-.53a36.77,36.77,0,0,0-1.77-3.54c-2.84-6.13-7.67-9.28-14.42-9.55-.87,0-1.13.21-1,1.11A21.09,21.09,0,0,0,73,216.51c2.56,4.72,6.4,7.42,11.92,7.41Zm-9.82-54.44c.13.58.37.85,1,.88A7.32,7.32,0,0,0,83.4,167a26.17,26.17,0,0,0,3.38-7,23.81,23.81,0,0,0,1.51-6.79c.11-2.62-1.35-3.65-3.8-2.75a3.46,3.46,0,0,0-.44.18c-5.39,2.88-9,6.93-8.81,13.47A23.68,23.68,0,0,0,75.93,169.49ZM72,161.73c0-2.08,0-4.16,0-6.23,0-4-2.05-6.69-5.44-8.5a2,2,0,0,0-2.68,1,6.8,6.8,0,0,0-.41,1.35,43.32,43.32,0,0,0-.7,11.09c.21,3.5,2.1,6.13,4.66,8.33a4.46,4.46,0,0,0,3.49,1.15,1,1,0,0,0,1-1.15c0-2.33,0-4.66,0-7ZM131.46,261c1.41-1.45,1.41-1.75-.34-2.74a54.25,54.25,0,0,0-13-5.32,11.12,11.12,0,0,0-5.88-.08,6.14,6.14,0,0,0-3.58,2.46c-.23.34-.34.63,0,1a13.85,13.85,0,0,0,4,3.69c2.2,1.17,4.49,2.12,6.77,3.13a10,10,0,0,0,4.13.81C126.52,263.86,129.28,263.2,131.46,261Zm.65-17.36a4.32,4.32,0,0,0-2-2.11,26.38,26.38,0,0,1-4.94-3.11,12.78,12.78,0,0,0-3.25-1.71c-.65-.21-1-.05-1.21.58A11.16,11.16,0,0,0,122.32,249c2.69,3.45,6.48,5,10.52,6.06,1.7.46,2,.23,2-1.51,0-.09,0-.19,0-.53A23.26,23.26,0,0,0,132.1,243.61ZM91.85,219.93c1.79,1.36,3.13.78,3.92-1a17.44,17.44,0,0,0,1.72-9.27,22.78,22.78,0,0,0-4.64-10.41c-.4-.54-.87-.41-1.34-.19a5.79,5.79,0,0,0-2.08,1.88c-2,2.62-2.38,5.69-2.59,8.41C86.86,214,88.47,217.35,91.85,219.93ZM62.92,180c0,.41,0,.82,0,1.23.22,2.44.08,5,1,7.26,2,4.84,6,7.33,10.76,8.89.67.22.89-.08.81-.78-.26-2.19-.41-4.39-.72-6.57a19.32,19.32,0,0,0-3.44-9.28,8.76,8.76,0,0,0-7.44-3.78c-.62,0-.95.24-1,.86s0,1.45,0,2.17ZM86,129.2c-4.21,3-5.89,7.45-6.23,12.48,0,.55.29.6.71.64a13.21,13.21,0,0,0,4.41-.19c2.6-.64,5.21-1.5,6.9-3.62a28.3,28.3,0,0,0,4.85-10.25c.22-.79-.13-1.11-.84-1.23a15.27,15.27,0,0,0-2.83-.19C90.06,126.79,88.89,127.12,86,129.2Zm.28,47.47a1.65,1.65,0,0,0-2.17-1.1,5,5,0,0,0-2.81,1.81c-4.84,5.65-5.07,11.79-1.69,18.23.25.47.51.49,1,.32,1.87-.67,3-2.17,4.38-3.51a10.9,10.9,0,0,0,3.06-8A21.09,21.09,0,0,0,86.3,176.67ZM112,240a7.72,7.72,0,0,0,1.74-5.82,21.76,21.76,0,0,0-4.89-12,5.27,5.27,0,0,0-2.67-1.87,1.69,1.69,0,0,0-1.78.17,5,5,0,0,0-1.84,3.06,24.6,24.6,0,0,0-.25,5.26,10.59,10.59,0,0,0,4.48,8.15c1.23.87,2.4,1.83,3.59,2.76a1,1,0,0,1,.53,1.11A3,3,0,0,0,112,240Z"/><path class="cls-11" d="M157.51,231H155.7v-6.8a6.22,6.22,0,0,1-2.33,1.37V224a5.26,5.26,0,0,0,1.54-.88,3.35,3.35,0,0,0,1.14-1.51h1.46Z"/><path class="cls-11" d="M160.55,228.86l1.75-.19a1.26,1.26,0,0,0,.33.79,1,1,0,0,0,.71.26,1.16,1.16,0,0,0,1-.51,4.38,4.38,0,0,0,.5-2.13,2.16,2.16,0,0,1-1.7.79,2.53,2.53,0,0,1-1.92-.86,3.11,3.11,0,0,1-.81-2.23,3.17,3.17,0,0,1,.85-2.31,3.08,3.08,0,0,1,4.52.23,5.72,5.72,0,0,1,.92,3.64,5.8,5.8,0,0,1-1,3.73,3.1,3.1,0,0,1-2.49,1.14,2.65,2.65,0,0,1-1.79-.59A2.85,2.85,0,0,1,160.55,228.86Zm4.09-3.94a2.07,2.07,0,0,0-.4-1.36,1.19,1.19,0,0,0-.93-.48,1,1,0,0,0-.83.4,2,2,0,0,0-.33,1.29,2.06,2.06,0,0,0,.36,1.34,1.13,1.13,0,0,0,.9.43,1.11,1.11,0,0,0,.88-.41A1.78,1.78,0,0,0,164.63,224.92Z"/><path class="cls-11" d="M168.15,228.62l1.8-.19a1.55,1.55,0,0,0,.46,1,1.25,1.25,0,0,0,.87.36,1.21,1.21,0,0,0,1-.46,2.09,2.09,0,0,0,.39-1.39,1.89,1.89,0,0,0-.39-1.3,1.29,1.29,0,0,0-1-.43,1.84,1.84,0,0,0-1.39.69l-1.46-.21.92-4.9h4.77v1.69h-3.4l-.28,1.6a2.76,2.76,0,0,1,3.27.57,3.15,3.15,0,0,1,.84,2.27,3.4,3.4,0,0,1-.67,2.07,3,3,0,0,1-2.55,1.25,3.17,3.17,0,0,1-2.13-.7A2.88,2.88,0,0,1,168.15,228.62Z"/><path class="cls-11" d="M179.29,231v-1.89h-3.85v-1.58l4.09-6H181v6h1.17v1.59H181V231Zm0-3.48v-3.22l-2.16,3.22Z"/></g></g></svg>